<mxfile host="app.diagrams.net" modified="2023-12-27T02:22:49.271Z" agent="Mozilla/5.0 (Macintosh; Intel Mac OS X 10_15_7) AppleWebKit/537.36 (KHTML, like Gecko) Chrome/120.0.0.0 Safari/537.36" version="22.1.12" etag="7L2VcAXxajHWmhSNQ1-P" type="github">
  <diagram name="PÃ¡gina-1" id="CssO8KOB_3HE4RoKYMvl">
    <mxGraphModel>
      <root>
        <mxCell id="0" />
        <mxCell id="1" parent="0" />
      </root>
    </mxGraphModel>
  </diagram>
</mxfile>
